#!OML:ASF F:\VICON\USERDATA\INSTALL\rory3\rory3.ASF
:FULLY-SPECIFIED
:DEGREES
425
root -3.95968 15.2037 22.6482 570.241 -8.60361 185.319
lowerback -0.327826 2.61228 -7.82895
upperback -10.1841 1.19864 -6.43573
thorax -10.8972 0.345747 -2.60212
lowerneck -19.3667 13.2268 2.90238
upperneck 3.27052 17.7081 -10.262
head 5.22397 7.90975 -1.77581
rclavicle 4.13472e-014 0
rhumerus 137.36 -23.6569 238.015
rradius 13.1915
rwrist 74.6252
rhand -14.5451 7.03319
rfingers 7.12502
rthumb 11.6035 -22.6256
lclavicle 4.13472e-014 0
lhumerus -13.8976 49.0142 -12.1023
lradius 21.544
lwrist -31.3038
lhand -5.89659 32.1916
lfingers 7.12502
lthumb 19.9318 61.1895
rfemur 2.68848 14.9193 30.6871
rtibia -1.27222e-014
rfoot -44.3343 -50.0433
rtoes -4.95626
lfemur -92.8229 27.0831 -49.0904
ltibia 63.4832
lfoot -29.794 28.142
ltoes 15.9561
426
root -3.94003 15.2065 22.6621 570.22 -8.66358 185.318
lowerback -0.149983 2.64217 -7.86601
upperback -10.1452 1.19785 -6.59439
thorax -10.9621 0.336915 -2.7603
lowerneck -19.5262 13.3599 2.95088
upperneck 3.12093 17.8563 -10.2912
head 5.2158 7.9794 -1.76863
rclavicle 7.95139e-015 -9.22361e-014
rhumerus 137.145 -24.523 238.037
rradius 12.9661
rwrist 73.9639
rhand -15.2379 7.33058
rfingers 7.12502
rthumb 10.9353 -22.3647
lclavicle 7.95139e-015 -9.22361e-014
lhumerus -13.9747 51.2998 -12.9076
lradius 21.2287
lwrist -33.1497
lhand -6.3473 30.9497
lfingers 7.12502
lthumb 19.4985 59.9921
rfemur 2.65133 14.8737 30.7552
rtibia 0
rfoot -44.3036 -49.823
rtoes -4.70387
lfemur -92.8375 27.1092 -49.1692
ltibia 63.2956
lfoot -29.1738 28.3258
ltoes 15.2321
427
root -3.92372 15.2214 22.6702 570.18 -8.56257 185.112
lowerback -0.410771 2.58943 -8.41941
upperback -9.8018 1.20589 -6.55068
thorax -10.4374 0.399163 -2.38057
lowerneck -19.789 13.5807 2.68639
upperneck 2.69937 18.1705 -10.5731
head 5.14735 8.10447 -1.77657
rclavicle -7.23576e-014 4.77083e-014
rhumerus 137.111 -24.3781 237.847
rradius 12.8082
rwrist 73.9148
rhand -15.8997 7.56439
rfingers 7.12502
rthumb 10.297 -22.1635
lclavicle -7.23576e-014 4.77083e-014
lhumerus -14.4654 51.6116 -13.3773
lradius 21.2734
lwrist -33.1222
lhand -5.99806 29.8964
lfingers 7.12502
lthumb 19.8342 58.9044
rfemur 2.67217 14.8551 30.5541
rtibia 3.49861e-014
rfoot -44.5145 -49.5935
rtoes -4.11388
lfemur -92.7441 27.2682 -49.549
ltibia 63.1015
lfoot -28.817 28.3167
ltoes 14.9318
428
root -3.91776 15.2325 22.6714 570.072 -8.6309 185.279
lowerback -0.423468 2.65439 -8.26405
upperback -9.75928 1.31387 -6.60793
thorax -10.3722 0.43841 -2.53474
lowerneck -19.6052 13.6777 2.74994
upperneck 2.7016 18.2995 -10.6008
head 5.13637 8.17745 -1.78572
rclavicle -4.37326e-014 6.36111e-014
rhumerus 136.915 -24.447 237.377
rradius 12.5332
rwrist 74.2935
rhand -16.1825 7.87623
rfingers 7.12502
rthumb 10.0241 -21.865
lclavicle -4.37326e-014 6.36111e-014
lhumerus -14.1539 49.5592 -13.1108
lradius 21.5994
lwrist -31.6323
lhand -5.06779 28.8173
lfingers 7.12502
lthumb 20.7283 57.7303
rfemur 2.73734 14.8679 30.7805
rtibia 4.77083e-014
rfoot -44.3925 -49.622
rtoes -4.18048
lfemur -92.7588 27.4735 -49.5145
ltibia 63.0135
lfoot -28.6329 28.3077
ltoes 14.5844
429
root -3.9147 15.2342 22.6747 569.932 -8.89241 185.728
lowerback -0.32267 2.79487 -7.7131
upperback -9.87765 1.51475 -6.64833
thorax -10.5368 0.493039 -2.91075
lowerneck -18.956 13.5961 3.08799
upperneck 2.74579 18.1517 -10.6307
head 5.0768 8.14265 -1.89014
rclavicle -4.85035e-014 -6.04305e-014
rhumerus 136.648 -24.7921 236.952
rradius 12.1128
rwrist 74.8738
rhand -16.6913 8.17837
rfingers 7.12502
rthumb 9.53317 -21.586
lclavicle -4.85035e-014 -6.04305e-014
lhumerus -13.3434 47.9357 -12.4612
lradius 21.7329
lwrist -30.6674
lhand -5.1228 28.628
lfingers 7.12502
lthumb 20.6754 57.5467
rfemur 2.77252 14.857 31.3633
rtibia -1.59028e-014
rfoot -44.0564 -49.7372
rtoes -4.36839
lfemur -92.8031 27.5526 -48.9779
ltibia 62.9999
lfoot -28.5841 28.3137
ltoes 14.4242
430
root -3.90978 15.241 22.6779 569.767 -9.20711 186.012
lowerback -0.239634 2.84012 -7.42586
upperback -9.83201 1.62326 -6.60137
thorax -10.5154 0.537338 -3.02954
lowerneck -18.7565 13.5878 3.29123
upperneck 2.86801 18.1315 -10.7203
head 5.11162 8.13623 -1.95109
rclavicle 4.85035e-014 0
rhumerus 136.409 -24.8443 236.571
rradius 11.9116
rwrist 75.696
rhand -16.6985 8.3222
rfingers 7.12502
rthumb 9.52627 -21.4425
lclavicle 4.85035e-014 0
lhumerus -12.6327 47.2486 -11.7114
lradius 21.842
lwrist -30.3107
lhand -5.16767 29.5204
lfingers 7.12502
lthumb 20.6323 58.4439
rfemur 2.83817 14.7074 31.8366
rtibia -1.90833e-014
rfoot -43.7434 -49.9543
rtoes -4.47584
lfemur -92.6412 27.5117 -48.4611
ltibia 62.954
lfoot -28.567 28.304
ltoes 14.6641
431
root -3.90866 15.2471 22.6775 569.543 -9.63062 186.216
lowerback -0.191183 2.77261 -7.07865
upperback -9.68556 1.60858 -6.53761
thorax -10.3527 0.520674 -3.14356
lowerneck -18.9878 13.6749 3.26585
upperneck 3.12299 18.287 -10.778
head 5.24125 8.18681 -1.92244
rclavicle -5.00937e-014 -4.77083e-014
rhumerus 136.137 -24.6153 236.052
rradius 11.8658
rwrist 76.5968
rhand -16.3473 8.36893
rfingers 7.12502
rthumb 9.8651 -21.38
lclavicle -5.00937e-014 -4.77083e-014
lhumerus -12.2775 48.5142 -11.5268
lradius 21.5708
lwrist -31.5881
lhand -5.05553 29.2683
lfingers 7.12502
lthumb 20.7401 58.18
rfemur 2.99176 14.4011 32.2834
rtibia 1.59028e-014
rfoot -43.8868 -49.8511
rtoes -3.81431
lfemur -92.2877 27.3696 -47.8749
ltibia 62.9083
lfoot -28.8732 28.0917
ltoes 15.7243
432
root -3.90321 15.2561 22.6812 569.39 -9.90945 186.271
lowerback -0.051877 2.8058 -6.9433
upperback -9.66926 1.65703 -6.56421
thorax -10.4087 0.537016 -3.25793
lowerneck -19.1448 13.6602 3.30452
upperneck 3.59277 18.3276 -10.8813
head 5.43228 8.17369 -1.92635
rclavicle 2.22639e-014 -5.40694e-014
rhumerus 136.034 -24.1398 235.176
rradius 11.692
rwrist 78.3136
rhand -16.5921 8.40843
rfingers 7.12502
rthumb 9.6289 -21.3515
lclavicle 2.22639e-014 -5.40694e-014
lhumerus -11.5432 49.1849 -10.9065
lradius 21.3919
lwrist -32.3112
lhand -5.13411 29.3217
lfingers 7.12502
lthumb 20.6646 58.2417
rfemur 3.06901 14.1632 32.5164
rtibia 1.27222e-014
rfoot -43.9543 -49.8288
rtoes -3.54097
lfemur -91.93 27.2166 -47.5141
ltibia 62.7576
lfoot -29.0669 28.0315
ltoes 16.2978
433
root -3.89694 15.2608 22.6916 569.375 -10.0577 186.485
lowerback -0.0123287 2.98346 -6.68411
upperback -9.84161 1.87114 -6.64843
thorax -10.6124 0.609661 -3.52558
lowerneck -18.6704 13.5534 3.44676
upperneck 3.88519 18.2055 -10.831
head 5.45253 8.13605 -1.96156
rclavicle -6.67916e-014 -6.36111e-014
rhumerus 135.841 -23.9503 234.348
rradius 11.3834
rwrist 79.9621
rhand -16.4705 8.36866
rfingers 7.12502
rthumb 9.74628 -21.3858
lclavicle -6.67916e-014 -6.36111e-014
lhumerus -10.3062 48.4011 -9.71342
lradius 21.442
lwrist -31.7844
lhand -5.20419 29.8065
lfingers 7.12502
lthumb 20.5972 58.7338
rfemur 2.9412 14.1625 32.7864
rtibia 6.36111e-015
rfoot -43.5394 -50.0584
rtoes -3.69733
lfemur -91.8519 27.069 -47.0975
ltibia 62.6124
lfoot -29.1769 28.0327
ltoes 16.9002
